
<svg version="1.1" xmlns="http://www.w3.org/2000/svg" xmlns:xlink="http://www.w3.org/1999/xlink" x="0px" y="0px" viewBox="0 0 1000 1000" enable-background="new 0 0 1000 1000" xml:space="preserve">
<g><g><path d="M500,990C229.8,990,10,770.2,10,500C10,229.8,229.8,10,500,10c270.1,0,490,219.8,490,490C990,770.2,770.1,990,500,990z M500,139.2C301.1,139.2,139.2,301,139.2,500c0,199,161.8,360.8,360.8,360.8S860.8,699,860.8,500C860.8,301,698.9,139.2,500,139.2z M812,500c0-53.5-43.4-96.9-96.9-96.9H284.9c-53.5,0-96.9,43.4-96.9,96.9c0,53.5,43.4,96.9,96.9,96.9h430.2C768.6,596.9,812,553.5,812,500z"/></g><g></g><g></g><g></g><g></g><g></g><g></g><g></g><g></g><g></g><g></g><g></g><g></g><g></g><g></g><g></g></g>
</svg>