<svg class="svg-icon" 
style="width: 100px; height: 100px;overflow: visible;" 
viewBox="0 0 1024 1024" version="1.1" xmlns="http://www.w3.org/2000/svg">
<path d="M768 548.571429V475.428571q0-14.857143-10.857143-25.714285t-25.714286-10.857143h-146.285714V292.571429q0-14.857143-10.857143-25.714286t-25.714285-10.857143H475.428571q-14.857143 0-25.714285 10.857143t-10.857143 25.714286v146.285714H292.571429q-14.857143 0-25.714286 10.857143t-10.857143 25.714285v73.142858q0 14.857143 10.857143 25.714285t25.714286 10.857143h146.285714v146.285714q0 14.857143 10.857143 25.714286t25.714285 10.857143h73.142858q14.857143 0 25.714285-10.857143t10.857143-25.714286v-146.285714h146.285714q14.857143 0 25.714286-10.857143t10.857143-25.714285z m182.857143-36.571429q0 119.428571-58.857143 220.285714T732.285714 892 512 950.857143t-220.285714-58.857143T132 732.285714 73.142857 512t58.857143-220.285714T291.714286 132 512 73.142857t220.285714 58.857143T892 291.714286 950.857143 512z"  /></svg>